{
 "cells": [
  {
   "cell_type": "code",
   "execution_count": 14,
   "metadata": {},
   "outputs": [
    {
     "data": {
      "text/plain": [
       "['audio1.mp3', 'sample-15s.mp3']"
      ]
     },
     "execution_count": 14,
     "metadata": {},
     "output_type": "execute_result"
    }
   ],
   "source": [
    "import os\n",
    "audio_folder = os.listdir(\"C:\\\\Users\\\\salmo\\\\Downloads\\\\audioToVideo\\\\audio\")\n",
    "audio_folder"
   ]
  },
  {
   "cell_type": "code",
   "execution_count": 16,
   "metadata": {},
   "outputs": [
    {
     "name": "stdout",
     "output_type": "stream",
     "text": [
      "\n",
      "ffmpeg version 2024-11-25-git-04ce01df0b-essentials_build-www.gyan.dev Copyright (c) 2000-2024 the FFmpeg developers\n",
      "  built with gcc 14.2.0 (Rev1, Built by MSYS2 project)\n",
      "  configuration: --enable-gpl --enable-version3 --enable-static --disable-w32threads --disable-autodetect --enable-fontconfig --enable-iconv --enable-gnutls --enable-libxml2 --enable-gmp --enable-bzlib --enable-lzma --enable-zlib --enable-libsrt --enable-libssh --enable-libzmq --enable-avisynth --enable-sdl2 --enable-libwebp --enable-libx264 --enable-libx265 --enable-libxvid --enable-libaom --enable-libopenjpeg --enable-libvpx --enable-mediafoundation --enable-libass --enable-libfreetype --enable-libfribidi --enable-libharfbuzz --enable-libvidstab --enable-libvmaf --enable-libzimg --enable-amf --enable-cuda-llvm --enable-cuvid --enable-dxva2 --enable-d3d11va --enable-d3d12va --enable-ffnvcodec --enable-libvpl --enable-nvdec --enable-nvenc --enable-vaapi --enable-libgme --enable-libopenmpt --enable-libopencore-amrwb --enable-libmp3lame --enable-libtheora --enable-libvo-amrwbenc --enable-libgsm --enable-libopencore-amrnb --enable-libopus --enable-libspeex --enable-libvorbis --enable-librubberband\n",
      "  libavutil      59. 47.101 / 59. 47.101\n",
      "  libavcodec     61. 25.103 / 61. 25.103\n",
      "  libavformat    61.  9.100 / 61.  9.100\n",
      "  libavdevice    61.  4.100 / 61.  4.100\n",
      "  libavfilter    10.  6.101 / 10.  6.101\n",
      "  libswscale      8. 12.100 /  8. 12.100\n",
      "  libswresample   5.  4.100 /  5.  4.100\n",
      "  libpostproc    58.  4.100 / 58.  4.100\n",
      "Input #0, image2, from 'C:\\Users\\salmo\\Downloads\\audioToVideo\\room1.jpg':\n",
      "  Duration: 00:00:00.04, start: 0.000000, bitrate: 20385 kb/s\n",
      "  Stream #0:0: Video: mjpeg (Baseline), yuvj444p(pc, bt470bg/unknown/unknown), 900x600 [SAR 96:96 DAR 3:2], 25 fps, 25 tbr, 25 tbn\n",
      "Input #1, mp3, from 'C:\\Users\\salmo\\Downloads\\audioToVideo\\audio\\audio1.mp3':\n",
      "  Metadata:\n",
      "    Encoded by      : LAME in FL Studio 20\n",
      "    BPM (beats per minute): 120\n",
      "    date            : 2018\n",
      "  Duration: 00:00:58.02, start: 0.025057, bitrate: 146 kb/s\n",
      "  Stream #1:0: Audio: mp3 (mp3float), 44100 Hz, stereo, fltp, 146 kb/s\n",
      "    Metadata:\n",
      "      encoder         : LAME3.100\n",
      "Stream mapping:\n",
      "  Stream #0:0 -> #0:0 (mjpeg (native) -> h264 (libx264))\n",
      "  Stream #1:0 -> #0:1 (mp3 (mp3float) -> aac (native))\n",
      "Press [q] to stop, [?] for help\n",
      "[swscaler @ 000001d0fc8a5200] deprecated pixel format used, make sure you did set range correctly\n",
      "[libx264 @ 000001d0fcafaa80] using SAR=1/1\n",
      "[libx264 @ 000001d0fcafaa80] using cpu capabilities: MMX2 SSE2Fast SSSE3 SSE4.2 AVX FMA3 BMI2 AVX2\n",
      "[libx264 @ 000001d0fcafaa80] profile High, level 3.1, 4:2:0, 8-bit\n",
      "[libx264 @ 000001d0fcafaa80] 264 - core 164 r3198 da14df5 - H.264/MPEG-4 AVC codec - Copyleft 2003-2024 - http://www.videolan.org/x264.html - options: cabac=1 ref=3 deblock=1:0:0 analyse=0x3:0x113 me=hex subme=7 psy=1 psy_rd=1.00:0.00 mixed_ref=1 me_range=16 chroma_me=1 trellis=1 8x8dct=1 cqm=0 deadzone=21,11 fast_pskip=1 chroma_qp_offset=-2 threads=19 lookahead_threads=3 sliced_threads=0 nr=0 decimate=1 interlaced=0 bluray_compat=0 constrained_intra=0 bframes=3 b_pyramid=2 b_adapt=1 b_bias=0 direct=1 weightb=1 open_gop=0 weightp=2 keyint=250 keyint_min=25 scenecut=40 intra_refresh=0 rc_lookahead=40 rc=crf mbtree=1 crf=23.0 qcomp=0.60 qpmin=0 qpmax=69 qpstep=4 ip_ratio=1.40 aq=1:1.00\n",
      "Output #0, mp4, to 'C:\\Users\\salmo\\Downloads\\audioToVideo\\video\\audio1.mp4':\n",
      "  Metadata:\n",
      "    encoder         : Lavf61.9.100\n",
      "  Stream #0:0: Video: h264 (avc1 / 0x31637661), yuv420p(pc, bt470bg/unknown/unknown, progressive), 900x600 [SAR 1:1 DAR 3:2], q=2-31, 25 fps, 12800 tbn\n",
      "    Metadata:\n",
      "      encoder         : Lavc61.25.103 libx264\n",
      "    Side data:\n",
      "      ICC Profile\n",
      "      cpb: bitrate max/min/avg: 0/0/0 buffer size: 0 vbv_delay: N/A\n",
      "  Stream #0:1: Audio: aac (LC) (mp4a / 0x6134706D), 44100 Hz, stereo, fltp, 192 kb/s\n",
      "    Metadata:\n",
      "      encoder         : Lavc61.25.103 aac\n",
      "frame=   72 fps=0.0 q=28.0 size=       0KiB time=00:00:02.80 bitrate=   0.1kbits/s speed=5.57x    \n",
      "frame=  199 fps=195 q=28.0 size=     256KiB time=00:00:07.88 bitrate= 266.2kbits/s speed=7.74x    \n",
      "frame=  199 fps=129 q=28.0 size=     256KiB time=00:00:07.88 bitrate= 266.2kbits/s speed=5.11x    \n",
      "frame=  297 fps=145 q=28.0 size=     256KiB time=00:00:11.80 bitrate= 177.8kbits/s speed=5.76x    \n",
      "frame=  437 fps=170 q=28.0 size=     512KiB time=00:00:17.40 bitrate= 241.1kbits/s speed=6.79x    \n",
      "frame=  593 fps=193 q=28.0 size=     768KiB time=00:00:23.64 bitrate= 266.2kbits/s speed=7.68x    \n",
      "frame=  761 fps=212 q=28.0 size=    1024KiB time=00:00:30.36 bitrate= 276.3kbits/s speed=8.44x    \n",
      "frame=  919 fps=223 q=28.0 size=    1024KiB time=00:00:36.64 bitrate= 229.0kbits/s speed= 8.9x    \n",
      "frame= 1074 fps=232 q=28.0 size=    1280KiB time=00:00:42.88 bitrate= 244.5kbits/s speed=9.26x    \n",
      "frame= 1233 fps=239 q=25.0 size=    1536KiB time=00:00:49.24 bitrate= 255.6kbits/s speed=9.56x    \n",
      "frame= 1385 fps=244 q=28.0 size=    1792KiB time=00:00:55.32 bitrate= 265.4kbits/s speed=9.76x    \n",
      "[out#0/mp4 @ 000001d0fc84fb80] video:635KiB audio:1411KiB subtitle:0KiB other streams:0KiB global headers:0KiB muxing overhead: 2.452758%\n",
      "frame= 1508 fps=253 q=-1.0 Lsize=    2096KiB time=00:00:57.98 bitrate= 296.2kbits/s speed=9.74x    \n",
      "[libx264 @ 000001d0fcafaa80] frame I:7     Avg QP:15.59  size: 86030\n",
      "[libx264 @ 000001d0fcafaa80] frame P:380   Avg QP:13.57  size:    45\n",
      "[libx264 @ 000001d0fcafaa80] frame B:1121  Avg QP:21.33  size:    27\n",
      "[libx264 @ 000001d0fcafaa80] consecutive B-frames:  0.9%  0.0%  0.2% 98.9%\n",
      "[libx264 @ 000001d0fcafaa80] mb I  I16..4:  3.0% 90.0%  7.1%\n",
      "[libx264 @ 000001d0fcafaa80] mb P  I16..4:  0.0%  0.0%  0.0%  P16..4:  0.2%  0.0%  0.0%  0.0%  0.0%    skip:99.8%\n",
      "[libx264 @ 000001d0fcafaa80] mb B  I16..4:  0.0%  0.0%  0.0%  B16..8:  0.0%  0.0%  0.0%  direct: 0.0%  skip:100.0%  L0: 7.8% L1:92.2% BI: 0.0%\n",
      "[libx264 @ 000001d0fcafaa80] 8x8 transform intra:90.0% inter:88.3%\n",
      "[libx264 @ 000001d0fcafaa80] coded y,uvDC,uvAC intra: 93.1% 70.3% 61.6% inter: 0.0% 0.0% 0.0%\n",
      "[libx264 @ 000001d0fcafaa80] i16 v,h,dc,p: 32% 15% 23% 30%\n",
      "[libx264 @ 000001d0fcafaa80] i8 v,h,dc,ddl,ddr,vr,hd,vl,hu: 39% 21% 15%  2%  3%  5%  4%  5%  5%\n",
      "[libx264 @ 000001d0fcafaa80] i4 v,h,dc,ddl,ddr,vr,hd,vl,hu: 46% 29%  6%  3%  3%  4%  2%  3%  3%\n",
      "[libx264 @ 000001d0fcafaa80] i8c dc,h,v,p: 51% 15% 31%  3%\n",
      "[libx264 @ 000001d0fcafaa80] Weighted P-Frames: Y:0.0% UV:0.0%\n",
      "[libx264 @ 000001d0fcafaa80] ref P L0: 99.5%  0.1%  0.1%  0.3%\n",
      "[libx264 @ 000001d0fcafaa80] ref B L0: 97.1%  1.5%  1.5%\n",
      "[libx264 @ 000001d0fcafaa80] ref B L1: 99.0%  1.0%\n",
      "[libx264 @ 000001d0fcafaa80] kb/s:86.11\n",
      "[aac @ 000001d0fc87b700] Qavg: 1144.766\n",
      "\n",
      "\n",
      "ffmpeg version 2024-11-25-git-04ce01df0b-essentials_build-www.gyan.dev Copyright (c) 2000-2024 the FFmpeg developers\n",
      "  built with gcc 14.2.0 (Rev1, Built by MSYS2 project)\n",
      "  configuration: --enable-gpl --enable-version3 --enable-static --disable-w32threads --disable-autodetect --enable-fontconfig --enable-iconv --enable-gnutls --enable-libxml2 --enable-gmp --enable-bzlib --enable-lzma --enable-zlib --enable-libsrt --enable-libssh --enable-libzmq --enable-avisynth --enable-sdl2 --enable-libwebp --enable-libx264 --enable-libx265 --enable-libxvid --enable-libaom --enable-libopenjpeg --enable-libvpx --enable-mediafoundation --enable-libass --enable-libfreetype --enable-libfribidi --enable-libharfbuzz --enable-libvidstab --enable-libvmaf --enable-libzimg --enable-amf --enable-cuda-llvm --enable-cuvid --enable-dxva2 --enable-d3d11va --enable-d3d12va --enable-ffnvcodec --enable-libvpl --enable-nvdec --enable-nvenc --enable-vaapi --enable-libgme --enable-libopenmpt --enable-libopencore-amrwb --enable-libmp3lame --enable-libtheora --enable-libvo-amrwbenc --enable-libgsm --enable-libopencore-amrnb --enable-libopus --enable-libspeex --enable-libvorbis --enable-librubberband\n",
      "  libavutil      59. 47.101 / 59. 47.101\n",
      "  libavcodec     61. 25.103 / 61. 25.103\n",
      "  libavformat    61.  9.100 / 61.  9.100\n",
      "  libavdevice    61.  4.100 / 61.  4.100\n",
      "  libavfilter    10.  6.101 / 10.  6.101\n",
      "  libswscale      8. 12.100 /  8. 12.100\n",
      "  libswresample   5.  4.100 /  5.  4.100\n",
      "  libpostproc    58.  4.100 / 58.  4.100\n",
      "Input #0, image2, from 'C:\\Users\\salmo\\Downloads\\audioToVideo\\room1.jpg':\n",
      "  Duration: 00:00:00.04, start: 0.000000, bitrate: 20385 kb/s\n",
      "  Stream #0:0: Video: mjpeg (Baseline), yuvj444p(pc, bt470bg/unknown/unknown), 900x600 [SAR 96:96 DAR 3:2], 25 fps, 25 tbr, 25 tbn\n",
      "Input #1, mp3, from 'C:\\Users\\salmo\\Downloads\\audioToVideo\\audio\\sample-15s.mp3':\n",
      "  Metadata:\n",
      "    encoder         : Lavf57.83.100\n",
      "  Duration: 00:00:19.20, start: 0.025057, bitrate: 128 kb/s\n",
      "  Stream #1:0: Audio: mp3 (mp3float), 44100 Hz, stereo, fltp, 128 kb/s\n",
      "    Metadata:\n",
      "      encoder         : Lavc57.10\n",
      "Stream mapping:\n",
      "  Stream #0:0 -> #0:0 (mjpeg (native) -> h264 (libx264))\n",
      "  Stream #1:0 -> #0:1 (mp3 (mp3float) -> aac (native))\n",
      "Press [q] to stop, [?] for help\n",
      "[swscaler @ 0000019b8cfc7040] deprecated pixel format used, make sure you did set range correctly\n",
      "[libx264 @ 0000019b8c32b840] using SAR=1/1\n",
      "[libx264 @ 0000019b8c32b840] using cpu capabilities: MMX2 SSE2Fast SSSE3 SSE4.2 AVX FMA3 BMI2 AVX2\n",
      "[libx264 @ 0000019b8c32b840] profile High, level 3.1, 4:2:0, 8-bit\n",
      "[libx264 @ 0000019b8c32b840] 264 - core 164 r3198 da14df5 - H.264/MPEG-4 AVC codec - Copyleft 2003-2024 - http://www.videolan.org/x264.html - options: cabac=1 ref=3 deblock=1:0:0 analyse=0x3:0x113 me=hex subme=7 psy=1 psy_rd=1.00:0.00 mixed_ref=1 me_range=16 chroma_me=1 trellis=1 8x8dct=1 cqm=0 deadzone=21,11 fast_pskip=1 chroma_qp_offset=-2 threads=19 lookahead_threads=3 sliced_threads=0 nr=0 decimate=1 interlaced=0 bluray_compat=0 constrained_intra=0 bframes=3 b_pyramid=2 b_adapt=1 b_bias=0 direct=1 weightb=1 open_gop=0 weightp=2 keyint=250 keyint_min=25 scenecut=40 intra_refresh=0 rc_lookahead=40 rc=crf mbtree=1 crf=23.0 qcomp=0.60 qpmin=0 qpmax=69 qpstep=4 ip_ratio=1.40 aq=1:1.00\n",
      "Output #0, mp4, to 'C:\\Users\\salmo\\Downloads\\audioToVideo\\video\\sample-15s.mp4':\n",
      "  Metadata:\n",
      "    encoder         : Lavf61.9.100\n",
      "  Stream #0:0: Video: h264 (avc1 / 0x31637661), yuv420p(pc, bt470bg/unknown/unknown, progressive), 900x600 [SAR 1:1 DAR 3:2], q=2-31, 25 fps, 12800 tbn\n",
      "    Metadata:\n",
      "      encoder         : Lavc61.25.103 libx264\n",
      "    Side data:\n",
      "      ICC Profile\n",
      "      cpb: bitrate max/min/avg: 0/0/0 buffer size: 0 vbv_delay: N/A\n",
      "  Stream #0:1: Audio: aac (LC) (mp4a / 0x6134706D), 44100 Hz, stereo, fltp, 192 kb/s\n",
      "    Metadata:\n",
      "      encoder         : Lavc61.25.103 aac\n",
      "frame=   75 fps=0.0 q=28.0 size=       0KiB time=00:00:02.92 bitrate=   0.1kbits/s speed=5.77x    \n",
      "frame=  199 fps=194 q=28.0 size=     256KiB time=00:00:07.88 bitrate= 266.2kbits/s speed=7.68x    \n",
      "frame=  199 fps=130 q=28.0 size=     256KiB time=00:00:07.88 bitrate= 266.2kbits/s speed=5.14x    \n",
      "frame=  217 fps=106 q=28.0 size=     256KiB time=00:00:08.60 bitrate= 243.9kbits/s speed=4.19x    \n",
      "frame=  363 fps=141 q=28.0 size=     512KiB time=00:00:14.44 bitrate= 290.5kbits/s speed=5.61x    \n",
      "[out#0/mp4 @ 0000019b8c5a1ec0] video:271KiB audio:445KiB subtitle:0KiB other streams:0KiB global headers:0KiB muxing overhead: 2.571121%\n",
      "frame=  538 fps=177 q=-1.0 Lsize=     734KiB time=00:00:19.17 bitrate= 313.8kbits/s speed=6.29x    \n",
      "[libx264 @ 0000019b8c32b840] frame I:3     Avg QP:15.59  size: 86043\n",
      "[libx264 @ 0000019b8c32b840] frame P:136   Avg QP:14.18  size:    56\n",
      "[libx264 @ 0000019b8c32b840] frame B:399   Avg QP:21.33  size:    27\n",
      "[libx264 @ 0000019b8c32b840] consecutive B-frames:  1.1%  0.0%  0.0% 98.9%\n",
      "[libx264 @ 0000019b8c32b840] mb I  I16..4:  2.7% 90.6%  6.8%\n",
      "[libx264 @ 0000019b8c32b840] mb P  I16..4:  0.0%  0.0%  0.0%  P16..4:  0.3%  0.0%  0.0%  0.0%  0.0%    skip:99.7%\n",
      "[libx264 @ 0000019b8c32b840] mb B  I16..4:  0.0%  0.0%  0.0%  B16..8:  0.0%  0.0%  0.0%  direct: 0.0%  skip:100.0%  L0:19.0% L1:81.0% BI: 0.0%\n",
      "[libx264 @ 0000019b8c32b840] 8x8 transform intra:90.6% inter:95.7%\n",
      "[libx264 @ 0000019b8c32b840] coded y,uvDC,uvAC intra: 93.3% 70.6% 61.9% inter: 0.0% 0.1% 0.0%\n",
      "[libx264 @ 0000019b8c32b840] i16 v,h,dc,p: 32% 13% 24% 31%\n",
      "[libx264 @ 0000019b8c32b840] i8 v,h,dc,ddl,ddr,vr,hd,vl,hu: 40% 21% 15%  2%  3%  5%  4%  5%  5%\n",
      "[libx264 @ 0000019b8c32b840] i4 v,h,dc,ddl,ddr,vr,hd,vl,hu: 45% 30%  7%  3%  3%  4%  2%  4%  3%\n",
      "[libx264 @ 0000019b8c32b840] i8c dc,h,v,p: 51% 15% 31%  3%\n",
      "[libx264 @ 0000019b8c32b840] Weighted P-Frames: Y:0.0% UV:0.0%\n",
      "[libx264 @ 0000019b8c32b840] ref P L0: 99.5%  0.1%  0.1%  0.3%\n",
      "[libx264 @ 0000019b8c32b840] ref B L0: 98.5%  0.0%  1.5%\n",
      "[libx264 @ 0000019b8c32b840] ref B L1: 98.9%  1.1%\n",
      "[libx264 @ 0000019b8c32b840] kb/s:102.75\n",
      "[aac @ 0000019b8c0ad480] Qavg: 812.915\n",
      "\n"
     ]
    }
   ],
   "source": [
    "import subprocess\n",
    "\n",
    "image_path = 'C:\\\\Users\\\\salmo\\\\Downloads\\\\audioToVideo\\\\room1.jpg'\n",
    "\n",
    "ffmpeg_path = r'C:\\Users\\salmo\\Downloads\\audioToVideo\\ffmpeg\\ffmpeg\\bin\\ffmpeg.exe'\n",
    "\n",
    "for audio_file in audio_folder:\n",
    "    audio_path = 'C:\\\\Users\\\\salmo\\\\Downloads\\\\audioToVideo\\\\audio\\\\'+audio_file\n",
    "    output_path = 'C:\\\\Users\\\\salmo\\\\Downloads\\\\audioToVideo\\\\video\\\\'+audio_file.split('.')[0]+'.mp4'\n",
    "\n",
    "    command = [\n",
    "        ffmpeg_path,\n",
    "        '-loop', '1',\n",
    "        '-i', image_path,\n",
    "        '-i', audio_path,\n",
    "        '-c:v', 'libx264',\n",
    "        '-pix_fmt', 'yuv420p',\n",
    "        '-c:a', 'aac',\n",
    "        '-b:a', '192k',\n",
    "        '-shortest',\n",
    "        output_path\n",
    "    ]\n",
    "\n",
    "    # Run the command and capture any errors\n",
    "    result = subprocess.run(command, stdout=subprocess.PIPE, stderr=subprocess.PIPE, text=True)\n",
    "\n",
    "# Print FFmpeg output (if any)\n",
    "    print(result.stdout)\n",
    "    print(result.stderr)"
   ]
  },
  {
   "cell_type": "code",
   "execution_count": null,
   "metadata": {},
   "outputs": [],
   "source": []
  }
 ],
 "metadata": {
  "kernelspec": {
   "display_name": ".venv",
   "language": "python",
   "name": "python3"
  },
  "language_info": {
   "codemirror_mode": {
    "name": "ipython",
    "version": 3
   },
   "file_extension": ".py",
   "mimetype": "text/x-python",
   "name": "python",
   "nbconvert_exporter": "python",
   "pygments_lexer": "ipython3",
   "version": "3.11.4"
  }
 },
 "nbformat": 4,
 "nbformat_minor": 2
}
